<svg width="69" height="134" viewBox="0 0 69 134" fill="none" xmlns="http://www.w3.org/2000/svg">
<line x1="1.1848" y1="1.4332" x2="9.83606" y2="10.1364" stroke="#E75451" stroke-width="2"/>
<line y1="-1" x2="12.2715" y2="-1" transform="matrix(-0.704988 0.709219 0.709219 0.704988 10.4854 2.13818)" stroke="#E75451" stroke-width="2"/>
<line x1="30.1848" y1="1.4332" x2="38.8361" y2="10.1364" stroke="#E75451" stroke-width="2"/>
<line y1="-1" x2="12.2715" y2="-1" transform="matrix(-0.704988 0.709219 0.709219 0.704988 39.4854 2.13818)" stroke="#E75451" stroke-width="2"/>
<line x1="59.1848" y1="1.4332" x2="67.8361" y2="10.1364" stroke="#E75451" stroke-width="2"/>
<line y1="-1" x2="12.2715" y2="-1" transform="matrix(-0.704988 0.709219 0.709219 0.704988 68.4854 2.13818)" stroke="#E75451" stroke-width="2"/>
<line x1="1.22582" y1="32.0333" x2="9.87708" y2="40.7365" stroke="#E75451" stroke-width="2"/>
<line y1="-1" x2="12.2715" y2="-1" transform="matrix(-0.704988 0.709219 0.709219 0.704988 10.5264 32.7383)" stroke="#E75451" stroke-width="2"/>
<line x1="30.2258" y1="32.0333" x2="38.8771" y2="40.7365" stroke="#E75451" stroke-width="2"/>
<line y1="-1" x2="12.2715" y2="-1" transform="matrix(-0.704988 0.709219 0.709219 0.704988 39.5264 32.7383)" stroke="#E75451" stroke-width="2"/>
<line x1="59.2258" y1="32.0333" x2="67.8771" y2="40.7365" stroke="#E75451" stroke-width="2"/>
<line y1="-1" x2="12.2715" y2="-1" transform="matrix(-0.704988 0.709219 0.709219 0.704988 68.5264 32.7383)" stroke="#E75451" stroke-width="2"/>
<line x1="1.22582" y1="62.598" x2="9.87708" y2="71.3012" stroke="#E75451" stroke-width="2"/>
<line y1="-1" x2="12.2715" y2="-1" transform="matrix(-0.704988 0.709219 0.709219 0.704988 10.5264 63.303)" stroke="#E75451" stroke-width="2"/>
<line x1="30.2258" y1="62.598" x2="38.8771" y2="71.3012" stroke="#E75451" stroke-width="2"/>
<line y1="-1" x2="12.2715" y2="-1" transform="matrix(-0.704988 0.709219 0.709219 0.704988 39.5264 63.303)" stroke="#E75451" stroke-width="2"/>
<line x1="59.2258" y1="62.598" x2="67.8771" y2="71.3012" stroke="#E75451" stroke-width="2"/>
<line y1="-1" x2="12.2715" y2="-1" transform="matrix(-0.704988 0.709219 0.709219 0.704988 68.5264 63.303)" stroke="#E75451" stroke-width="2"/>
<line x1="1.22582" y1="93.1585" x2="9.87708" y2="101.862" stroke="#E75451" stroke-width="2"/>
<line y1="-1" x2="12.2715" y2="-1" transform="matrix(-0.704988 0.709219 0.709219 0.704988 10.5264 93.8635)" stroke="#E75451" stroke-width="2"/>
<line x1="30.2258" y1="93.1585" x2="38.8771" y2="101.862" stroke="#E75451" stroke-width="2"/>
<line y1="-1" x2="12.2715" y2="-1" transform="matrix(-0.704988 0.709219 0.709219 0.704988 39.5264 93.8635)" stroke="#E75451" stroke-width="2"/>
<line x1="59.2258" y1="93.1585" x2="67.8771" y2="101.862" stroke="#E75451" stroke-width="2"/>
<line y1="-1" x2="12.2715" y2="-1" transform="matrix(-0.704988 0.709219 0.709219 0.704988 68.5264 93.8635)" stroke="#E75451" stroke-width="2"/>
<line x1="1.22582" y1="123.72" x2="9.87708" y2="132.423" stroke="#E75451" stroke-width="2"/>
<line y1="-1" x2="12.2715" y2="-1" transform="matrix(-0.704988 0.709219 0.709219 0.704988 10.5264 124.425)" stroke="#E75451" stroke-width="2"/>
<line x1="30.2258" y1="123.72" x2="38.8771" y2="132.423" stroke="#E75451" stroke-width="2"/>
<line y1="-1" x2="12.2715" y2="-1" transform="matrix(-0.704988 0.709219 0.709219 0.704988 39.5264 124.425)" stroke="#E75451" stroke-width="2"/>
<line x1="59.2258" y1="123.72" x2="67.8771" y2="132.423" stroke="#E75451" stroke-width="2"/>
<line y1="-1" x2="12.2715" y2="-1" transform="matrix(-0.704988 0.709219 0.709219 0.704988 68.5264 124.425)" stroke="#E75451" stroke-width="2"/>
</svg>
