<svg width="100" height="26" viewBox="0 0 100 26" fill="none" xmlns="http://www.w3.org/2000/svg">
<path d="M99.9999 0H-6.10352e-05V26H99.9999V0Z" fill="#E75451"/>
<path d="M89.3914 8.4995L86.617 16.3063L83.3418 8.4995H81.55L85.7501 18.4173L85.5767 18.7957C85.0758 20.1101 84.2666 20.9266 82.9757 20.827V22.4401C84.9409 22.5795 86.4437 21.305 87.2528 19.0745L91.1831 8.4995H89.3914ZM76.9275 8.2408C75.6752 8.2408 74.5771 8.7984 73.9027 9.9336C73.344 8.8582 72.3807 8.2408 71.0706 8.2408C69.8954 8.2408 68.8935 8.7188 68.1999 9.834V8.4997H66.5238V18.4573H68.1999V12.9209C68.1999 10.77 69.3752 9.8937 70.666 9.8937C71.9183 9.8937 72.7082 10.7501 72.7082 12.3234V18.4573H74.3844V12.9209C74.3844 10.77 75.4055 9.8937 76.7541 9.8937C78.0257 9.8937 78.8734 10.7501 78.8734 12.3234V18.4573H80.5496V12.2637C80.5496 9.7743 79.0661 8.2408 76.9275 8.2408ZM59.8014 9.8739C61.2464 9.8739 62.6143 10.79 62.9033 12.7616H56.4684C56.7381 11.029 57.9904 9.8739 59.8014 9.8739ZM56.4669 14.2751H64.5394C64.578 14.0162 64.5972 13.7573 64.5972 13.4984C64.5972 10.7103 62.7092 8.2408 59.8 8.2408C56.7944 8.2408 54.7522 10.531 54.7522 13.4785C54.7522 16.4657 56.8137 18.7162 59.9155 18.7162C61.8422 18.7162 63.3064 17.82 64.1541 16.4657L62.7284 15.6293C62.2468 16.4458 61.2835 17.0831 59.9541 17.0831C58.1623 17.0831 56.7944 16.0674 56.4669 14.2751ZM47.6411 17.0434C45.7144 17.0434 44.2309 15.5099 44.2309 13.4786C44.2309 11.4472 45.7144 9.9138 47.6411 9.9138C49.587 9.9138 51.0704 11.4472 51.0704 13.4786C51.0704 15.5099 49.587 17.0434 47.6411 17.0434ZM51.072 4.5166V10.2124C50.3014 8.9976 49.0684 8.2408 47.4307 8.2408C44.7527 8.2408 42.5564 10.531 42.5564 13.4785C42.5564 16.4259 44.7527 18.7161 47.4307 18.7161C49.0684 18.7161 50.3014 17.9594 51.072 16.7445V18.4573H52.7482V4.5166H51.072ZM35.4476 17.0434C33.521 17.0434 32.0375 15.5099 32.0375 13.4786C32.0375 11.4472 33.521 9.9138 35.4476 9.9138C37.3935 9.9138 38.877 11.4472 38.877 13.4786C38.877 15.5099 37.3935 17.0434 35.4476 17.0434ZM38.877 8.4997V10.2124C38.1064 8.9976 36.8733 8.2408 35.2357 8.2408C32.5577 8.2408 30.3614 10.531 30.3614 13.4785C30.3614 16.4259 32.5577 18.7162 35.2357 18.7162C36.8733 18.7162 38.1064 17.9594 38.877 16.7446V18.4573H40.5532V8.4997H38.877ZM25.044 18.7162C26.9321 18.7162 28.5697 17.6806 29.3789 16.1272L27.9532 15.2708C27.4137 16.3064 26.3541 17.0035 25.044 17.0035C23.1174 17.0035 21.6531 15.47 21.6531 13.4785C21.6531 11.467 23.1174 9.9336 25.044 9.9336C26.3348 9.9336 27.4137 10.6306 27.8954 11.6861L29.3018 10.8497C28.5697 9.2764 26.9513 8.2408 25.044 8.2408C22.1348 8.2408 19.977 10.531 19.977 13.4785C19.977 16.4259 22.1348 18.7162 25.044 18.7162ZM12.8674 17.0434C10.9408 17.0434 9.45736 15.5099 9.45736 13.4786C9.45736 11.4472 10.9408 9.9138 12.8674 9.9138C14.8133 9.9138 16.2968 11.4472 16.2968 13.4786C16.2968 15.5099 14.8133 17.0434 12.8674 17.0434ZM16.2968 8.4997V10.2124C15.5262 8.9976 14.2931 8.2408 12.6555 8.2408C9.97754 8.2408 7.78119 10.531 7.78119 13.4785C7.78119 16.4259 9.97754 18.7162 12.6555 18.7162C14.2931 18.7162 15.5262 17.9594 16.2968 16.7446V18.4573H17.973V8.4997H16.2968Z" fill="white"/>
</svg>
