<svg width="101" height="55" viewBox="0 0 101 55" fill="none" xmlns="http://www.w3.org/2000/svg">
<path d="M100.073 28.2273H0.0734863V54.2273H100.073V28.2273Z" fill="#E75451"/>
<path d="M62.0735 0.227295H0.0734863V26.2273H62.0735V0.227295Z" fill="#E75451"/>
<path d="M52.0467 11.6341C53.5728 11.6341 55.0175 12.548 55.3227 14.5147H48.5265C48.8114 12.7864 50.134 11.6341 52.0467 11.6341ZM48.5276 16.0244H57.0534C57.0941 15.7662 57.1144 15.5079 57.1144 15.2497C57.1144 12.4684 55.1204 10.005 52.0478 10.005C48.8735 10.005 46.7167 12.2896 46.7167 15.2298C46.7167 18.2097 48.8939 20.4546 52.1699 20.4546C54.2047 20.4546 55.7511 19.5606 56.6464 18.2097L55.1407 17.3753C54.632 18.1899 53.6146 18.8256 52.2106 18.8256C50.3183 18.8256 48.8735 17.8124 48.5276 16.0244ZM44.8861 11.9322V10.2634H42.1798V7.48213L40.4095 7.99865V10.2634H38.3951V11.9322H40.4095V17.3159C40.4095 19.7992 41.8339 20.5938 44.8861 20.1965V18.6469C43.0751 18.7264 42.1798 18.8257 42.1798 17.3159V11.9322H44.8861ZM30.8662 18.7858C28.8315 18.7858 27.2647 17.2561 27.2647 15.2298C27.2647 13.2034 28.8315 11.6737 30.8662 11.6737C32.9214 11.6737 34.4882 13.2034 34.4882 15.2298C34.4882 17.2561 32.9214 18.7858 30.8662 18.7858ZM34.4878 10.2632V11.9717C33.6739 10.7599 32.3716 10.005 30.6421 10.005C27.8137 10.005 25.494 12.2896 25.494 15.2298C25.494 18.17 27.8137 20.4546 30.6421 20.4546C32.3716 20.4546 33.6739 19.6997 34.4878 18.4878V20.1963H36.2581V10.2632H34.4878ZM23.1953 6.29004H21.0588L16.5416 13.6405L12.004 6.29004H9.86743V20.1964H11.7598V9.34944L16.4195 16.8986H16.6636L21.3233 9.32957V20.1964H23.1953V6.29004Z" fill="white"/>
<path d="M89.465 36.727L86.6906 44.5338L83.4154 36.727H81.6236L85.8237 46.6448L85.6503 47.0232C85.1494 48.3376 84.3402 49.1541 83.0493 49.0545V50.6676C85.0145 50.807 86.5173 49.5325 87.3264 47.302L91.2567 36.727H89.465ZM77.0011 36.4683C75.7488 36.4683 74.6507 37.0259 73.9763 38.1611C73.4176 37.0857 72.4543 36.4683 71.1442 36.4683C69.969 36.4683 68.9671 36.9463 68.2735 38.0615V36.7272H66.5974V46.6848H68.2735V41.1484C68.2735 38.9975 69.4488 38.1212 70.7396 38.1212C71.9919 38.1212 72.7818 38.9776 72.7818 40.5509V46.6848H74.458V41.1484C74.458 38.9975 75.4791 38.1212 76.8277 38.1212C78.0993 38.1212 78.947 38.9776 78.947 40.5509V46.6848H80.6232V40.4912C80.6232 38.0018 79.1397 36.4683 77.0011 36.4683ZM59.875 38.1014C61.32 38.1014 62.6879 39.0175 62.9769 40.9891H56.542C56.8117 39.2565 58.064 38.1014 59.875 38.1014ZM56.5405 42.5026H64.613C64.6516 42.2437 64.6708 41.9848 64.6708 41.7259C64.6708 38.9378 62.7828 36.4683 59.8736 36.4683C56.868 36.4683 54.8258 38.7585 54.8258 41.706C54.8258 44.6932 56.8873 46.9437 59.9891 46.9437C61.9158 46.9437 63.38 46.0475 64.2277 44.6932L62.802 43.8568C62.3204 44.6733 61.3571 45.3106 60.0277 45.3106C58.2359 45.3106 56.868 44.2949 56.5405 42.5026ZM47.7147 45.2709C45.788 45.2709 44.3045 43.7374 44.3045 41.7061C44.3045 39.6747 45.788 38.1413 47.7147 38.1413C49.6606 38.1413 51.144 39.6747 51.144 41.7061C51.144 43.7374 49.6606 45.2709 47.7147 45.2709ZM51.1456 32.7441V38.4399C50.375 37.2251 49.142 36.4683 47.5043 36.4683C44.8263 36.4683 42.63 38.7585 42.63 41.706C42.63 44.6534 44.8263 46.9436 47.5043 46.9436C49.142 46.9436 50.375 46.1869 51.1456 44.972V46.6848H52.8218V32.7441H51.1456ZM35.5212 45.2709C33.5946 45.2709 32.1111 43.7374 32.1111 41.7061C32.1111 39.6747 33.5946 38.1413 35.5212 38.1413C37.4671 38.1413 38.9506 39.6747 38.9506 41.7061C38.9506 43.7374 37.4671 45.2709 35.5212 45.2709ZM38.9506 36.7272V38.4399C38.18 37.2251 36.9469 36.4683 35.3093 36.4683C32.6313 36.4683 30.435 38.7585 30.435 41.706C30.435 44.6534 32.6313 46.9437 35.3093 46.9437C36.9469 46.9437 38.18 46.1869 38.9506 44.9721V46.6848H40.6268V36.7272H38.9506ZM25.1176 46.9437C27.0057 46.9437 28.6433 45.9081 29.4525 44.3547L28.0268 43.4983C27.4873 44.5339 26.4277 45.231 25.1176 45.231C23.191 45.231 21.7267 43.6975 21.7267 41.706C21.7267 39.6945 23.191 38.1611 25.1176 38.1611C26.4084 38.1611 27.4873 38.8581 27.969 39.9136L29.3754 39.0772C28.6433 37.5039 27.0249 36.4683 25.1176 36.4683C22.2084 36.4683 20.0506 38.7585 20.0506 41.706C20.0506 44.6534 22.2084 46.9437 25.1176 46.9437ZM12.941 45.2709C11.0144 45.2709 9.53091 43.7374 9.53091 41.7061C9.53091 39.6747 11.0144 38.1413 12.941 38.1413C14.8869 38.1413 16.3704 39.6747 16.3704 41.7061C16.3704 43.7374 14.8869 45.2709 12.941 45.2709ZM16.3704 36.7272V38.4399C15.5998 37.2251 14.3667 36.4683 12.7291 36.4683C10.0511 36.4683 7.85474 38.7585 7.85474 41.706C7.85474 44.6534 10.0511 46.9437 12.7291 46.9437C14.3667 46.9437 15.5998 46.1869 16.3704 44.9721V46.6848H18.0466V36.7272H16.3704Z" fill="white"/>
</svg>
