<svg width="62" height="26" viewBox="0 0 62 26" fill="none" xmlns="http://www.w3.org/2000/svg">
<path d="M61.9999 0H-6.10352e-05V26H61.9999V0Z" fill="#E75451"/>
<path d="M51.9731 11.4066C53.4992 11.4066 54.9439 12.3205 55.2491 14.2872H48.4529C48.7378 12.5589 50.0604 11.4066 51.9731 11.4066ZM48.454 15.7969H56.9798C57.0205 15.5387 57.0408 15.2804 57.0408 15.0222C57.0408 12.2409 55.0468 9.77744 51.9742 9.77744C48.7999 9.77744 46.6431 12.0621 46.6431 15.0023C46.6431 17.9822 48.8203 20.2271 52.0963 20.2271C54.1311 20.2271 55.6775 19.3331 56.5728 17.9822L55.0671 17.1478C54.5584 17.9624 53.541 18.5981 52.137 18.5981C50.2447 18.5981 48.7999 17.5849 48.454 15.7969ZM44.8125 11.7047V10.0359H42.1062V7.25459L40.3359 7.77111V10.0359H38.3215V11.7047H40.3359V17.0884C40.3359 19.5717 41.7603 20.3663 44.8125 19.969V18.4194C43.0015 18.4989 42.1062 18.5982 42.1062 17.0884V11.7047H44.8125ZM30.7926 18.5583C28.7579 18.5583 27.1911 17.0286 27.1911 15.0023C27.1911 12.9759 28.7579 11.4462 30.7926 11.4462C32.8478 11.4462 34.4146 12.9759 34.4146 15.0023C34.4146 17.0286 32.8478 18.5583 30.7926 18.5583ZM34.4142 10.0357V11.7442C33.6003 10.5324 32.298 9.77744 30.5685 9.77744C27.7401 9.77744 25.4204 12.0621 25.4204 15.0023C25.4204 17.9425 27.7401 20.2271 30.5685 20.2271C32.298 20.2271 33.6003 19.4722 34.4142 18.2603V19.9688H36.1845V10.0357H34.4142ZM23.1217 6.0625H20.9852L16.468 13.413L11.9304 6.0625H9.79388V19.9689H11.6862V9.1219L16.3459 16.6711H16.59L21.2497 9.10203V19.9689H23.1217V6.0625Z" fill="white"/>
</svg>
