<svg width="100" height="54" viewBox="0 0 100 54" fill="none" xmlns="http://www.w3.org/2000/svg">
    <path d="M61.9999 0H-6.10352e-05V26H61.9999V0Z" fill="#E75451"/>
    <path d="M51.9731 11.4066C53.4992 11.4066 54.9439 12.3205 55.2491 14.2872H48.4529C48.7378 12.5589 50.0604 11.4066 51.9731 11.4066ZM48.454 15.7969H56.9798C57.0205 15.5387 57.0408 15.2804 57.0408 15.0222C57.0408 12.2409 55.0468 9.77744 51.9742 9.77744C48.7999 9.77744 46.6431 12.0621 46.6431 15.0023C46.6431 17.9822 48.8203 20.2271 52.0963 20.2271C54.1311 20.2271 55.6775 19.3331 56.5728 17.9822L55.0671 17.1478C54.5584 17.9624 53.541 18.5981 52.137 18.5981C50.2447 18.5981 48.7999 17.5849 48.454 15.7969ZM44.8125 11.7047V10.0359H42.1062V7.25459L40.3359 7.77111V10.0359H38.3215V11.7047H40.3359V17.0884C40.3359 19.5717 41.7603 20.3663 44.8125 19.969V18.4194C43.0015 18.4989 42.1062 18.5982 42.1062 17.0884V11.7047H44.8125ZM30.7926 18.5583C28.7579 18.5583 27.1911 17.0286 27.1911 15.0023C27.1911 12.9759 28.7579 11.4462 30.7926 11.4462C32.8478 11.4462 34.4146 12.9759 34.4146 15.0023C34.4146 17.0286 32.8478 18.5583 30.7926 18.5583ZM34.4142 10.0357V11.7442C33.6003 10.5324 32.298 9.77744 30.5685 9.77744C27.7401 9.77744 25.4204 12.0621 25.4204 15.0023C25.4204 17.9425 27.7401 20.2271 30.5685 20.2271C32.298 20.2271 33.6003 19.4722 34.4142 18.2603V19.9688H36.1845V10.0357H34.4142ZM23.1217 6.0625H20.9852L16.468 13.413L11.9304 6.0625H9.79388V19.9689H11.6862V9.1219L16.3459 16.6711H16.59L21.2497 9.10203V19.9689H23.1217V6.0625Z"
          fill="white"/>
    <path d="M99.9999 28H-6.10352e-05V54H99.9999V28Z" fill="#E75451"/>
    <path d="M89.3914 36.4995L86.617 44.3063L83.3418 36.4995H81.55L85.7501 46.4173L85.5767 46.7957C85.0758 48.1101 84.2666 48.9266 82.9757 48.827V50.4401C84.9409 50.5795 86.4437 49.305 87.2528 47.0745L91.1831 36.4995H89.3914ZM76.9275 36.2408C75.6752 36.2408 74.5771 36.7984 73.9027 37.9336C73.344 36.8582 72.3807 36.2408 71.0706 36.2408C69.8954 36.2408 68.8935 36.7188 68.1999 37.834V36.4997H66.5238V46.4573H68.1999V40.9209C68.1999 38.77 69.3752 37.8937 70.666 37.8937C71.9183 37.8937 72.7082 38.7501 72.7082 40.3234V46.4573H74.3844V40.9209C74.3844 38.77 75.4055 37.8937 76.7541 37.8937C78.0257 37.8937 78.8734 38.7501 78.8734 40.3234V46.4573H80.5496V40.2637C80.5496 37.7743 79.0661 36.2408 76.9275 36.2408ZM59.8014 37.8739C61.2464 37.8739 62.6143 38.79 62.9033 40.7616H56.4684C56.7381 39.029 57.9904 37.8739 59.8014 37.8739ZM56.4669 42.2751H64.5394C64.578 42.0162 64.5972 41.7573 64.5972 41.4984C64.5972 38.7103 62.7092 36.2408 59.8 36.2408C56.7944 36.2408 54.7522 38.531 54.7522 41.4785C54.7522 44.4657 56.8137 46.7162 59.9155 46.7162C61.8422 46.7162 63.3064 45.82 64.1541 44.4657L62.7284 43.6293C62.2468 44.4458 61.2835 45.0831 59.9541 45.0831C58.1623 45.0831 56.7944 44.0674 56.4669 42.2751ZM47.6411 45.0434C45.7144 45.0434 44.2309 43.5099 44.2309 41.4786C44.2309 39.4472 45.7144 37.9138 47.6411 37.9138C49.587 37.9138 51.0704 39.4472 51.0704 41.4786C51.0704 43.5099 49.587 45.0434 47.6411 45.0434ZM51.072 32.5166V38.2124C50.3014 36.9976 49.0684 36.2408 47.4307 36.2408C44.7527 36.2408 42.5564 38.531 42.5564 41.4785C42.5564 44.4259 44.7527 46.7161 47.4307 46.7161C49.0684 46.7161 50.3014 45.9594 51.072 44.7445V46.4573H52.7482V32.5166H51.072ZM35.4476 45.0434C33.521 45.0434 32.0375 43.5099 32.0375 41.4786C32.0375 39.4472 33.521 37.9138 35.4476 37.9138C37.3935 37.9138 38.877 39.4472 38.877 41.4786C38.877 43.5099 37.3935 45.0434 35.4476 45.0434ZM38.877 36.4997V38.2124C38.1064 36.9976 36.8733 36.2408 35.2357 36.2408C32.5577 36.2408 30.3614 38.531 30.3614 41.4785C30.3614 44.4259 32.5577 46.7162 35.2357 46.7162C36.8733 46.7162 38.1064 45.9594 38.877 44.7446V46.4573H40.5532V36.4997H38.877ZM25.044 46.7162C26.9321 46.7162 28.5697 45.6806 29.3789 44.1272L27.9532 43.2708C27.4137 44.3064 26.3541 45.0035 25.044 45.0035C23.1174 45.0035 21.6531 43.47 21.6531 41.4785C21.6531 39.467 23.1174 37.9336 25.044 37.9336C26.3348 37.9336 27.4137 38.6306 27.8954 39.6861L29.3018 38.8497C28.5697 37.2764 26.9513 36.2408 25.044 36.2408C22.1348 36.2408 19.977 38.531 19.977 41.4785C19.977 44.4259 22.1348 46.7162 25.044 46.7162ZM12.8674 45.0434C10.9408 45.0434 9.45736 43.5099 9.45736 41.4786C9.45736 39.4472 10.9408 37.9138 12.8674 37.9138C14.8133 37.9138 16.2968 39.4472 16.2968 41.4786C16.2968 43.5099 14.8133 45.0434 12.8674 45.0434ZM16.2968 36.4997V38.2124C15.5262 36.9976 14.2931 36.2408 12.6555 36.2408C9.97754 36.2408 7.78119 38.531 7.78119 41.4785C7.78119 44.4259 9.97754 46.7162 12.6555 46.7162C14.2931 46.7162 15.5262 45.9594 16.2968 44.7446V46.4573H17.973V36.4997H16.2968Z"
          fill="white"/>
</svg>
