<svg width="29" height="61" viewBox="0 0 29 61" fill="none" xmlns="http://www.w3.org/2000/svg">
<g clip-path="url(#clip0)">
<path d="M28.2696 36.4869C28.2696 36.7101 28.158 36.9612 27.9906 37.1286L26.5955 38.5237C26.4281 38.6911 26.1769 38.8027 25.9537 38.8027C25.7305 38.8027 25.4794 38.6911 25.312 38.5237L14.3466 27.5583L3.38117 38.5237C3.21376 38.6911 2.96265 38.8027 2.73943 38.8027C2.48832 38.8027 2.2651 38.6911 2.09769 38.5237L0.702602 37.1286C0.535191 36.9612 0.423584 36.7101 0.423584 36.4869C0.423584 36.2637 0.535191 36.0126 0.702602 35.8452L13.7048 22.8429C13.8722 22.6755 14.1234 22.5639 14.3466 22.5639C14.5698 22.5639 14.8209 22.6755 14.9883 22.8429L27.9906 35.8452C28.158 36.0126 28.2696 36.2637 28.2696 36.4869Z" fill="#E75451"/>
<path d="M28.2696 58.4869C28.2696 58.7101 28.158 58.9612 27.9906 59.1286L26.5955 60.5237C26.4281 60.6911 26.1769 60.8027 25.9537 60.8027C25.7305 60.8027 25.4794 60.6911 25.312 60.5237L14.3466 49.5583L3.38117 60.5237C3.21376 60.6911 2.96265 60.8027 2.73943 60.8027C2.48832 60.8027 2.2651 60.6911 2.09769 60.5237L0.702602 59.1286C0.535191 58.9612 0.423584 58.7101 0.423584 58.4869C0.423584 58.2637 0.535191 58.0126 0.702602 57.8452L13.7048 44.8429C13.8722 44.6755 14.1234 44.5639 14.3466 44.5639C14.5698 44.5639 14.8209 44.6755 14.9883 44.8429L27.9906 57.8452C28.158 58.0126 28.2696 58.2637 28.2696 58.4869Z" fill="#E75451"/>
<path d="M28.2696 14.4869C28.2696 14.7101 28.158 14.9612 27.9906 15.1286L26.5955 16.5237C26.4281 16.6911 26.1769 16.8027 25.9537 16.8027C25.7305 16.8027 25.4794 16.6911 25.312 16.5237L14.3466 5.55832L3.38117 16.5237C3.21376 16.6911 2.96265 16.8027 2.73943 16.8027C2.48832 16.8027 2.2651 16.6911 2.09769 16.5237L0.702602 15.1286C0.535191 14.9612 0.423584 14.7101 0.423584 14.4869C0.423584 14.2637 0.535191 14.0126 0.702602 13.8452L13.7048 0.842922C13.8722 0.675511 14.1234 0.563905 14.3466 0.563905C14.5698 0.563905 14.8209 0.675511 14.9883 0.842922L27.9906 13.8452C28.158 14.0126 28.2696 14.2637 28.2696 14.4869Z" fill="#E75451"/>
</g>
<defs>
<clipPath id="clip0">
<rect width="1920" height="7325" fill="white" transform="translate(-1548 -900)"/>
</clipPath>
</defs>
</svg>
