<?xml version="1.0" encoding="utf-8"?>
<!-- Generator: Adobe Illustrator 15.1.0, SVG Export Plug-In . SVG Version: 6.00 Build 0)  -->
<!DOCTYPE svg PUBLIC "-//W3C//DTD SVG 1.1//EN" "http://www.w3.org/Graphics/SVG/1.1/DTD/svg11.dtd">
<svg version="1.1" id="Shape_1_1_" xmlns="http://www.w3.org/2000/svg" xmlns:xlink="http://www.w3.org/1999/xlink" x="0px" y="0px"
	 width="512px" height="512px" viewBox="0 0 512 512" enable-background="new 0 0 512 512" xml:space="preserve">
<g id="Shape_1">
	<g>
		<path fill-rule="evenodd" clip-rule="evenodd" fill="#30A4DC" d="M493.137,32.337H307.2v-2.695C307.2,13.298,293.902,0,277.559,0
			h-43.117C218.098,0,204.8,13.298,204.8,29.642v2.695H18.863C8.463,32.337,0,40.799,0,51.2v53.895c0,4.466,3.619,8.084,8.084,8.084
			s8.084-3.618,8.084-8.084V51.2c0-1.486,1.208-2.695,2.695-2.695h226.358c4.466,0,8.084-3.618,8.084-8.084
			s-3.618-8.084-8.084-8.084h-24.253v-2.695c0-7.43,6.044-13.474,13.474-13.474h43.117c7.43,0,13.474,6.044,13.474,13.474v2.695
			h-13.474c-4.467,0-8.084,3.618-8.084,8.084s3.617,8.084,8.084,8.084h215.578c1.486,0,2.695,1.208,2.695,2.695v237.136
			c0,4.466,3.619,8.084,8.084,8.084c4.466,0,8.084-3.619,8.084-8.084V51.2C512,40.799,503.537,32.337,493.137,32.337z
			 M503.916,312.589c-4.466,0-8.084,3.618-8.084,8.084v53.896c0,1.485-1.208,2.694-2.695,2.694H18.863
			c-1.486,0-2.695-1.208-2.695-2.694V137.432c0-4.466-3.619-8.084-8.084-8.084S0,132.966,0,137.432v237.138
			c0,10.4,8.463,18.862,18.863,18.862h121.263v102.4h-35.032c-4.466,0-8.084,3.619-8.084,8.084c0,4.466,3.618,8.084,8.084,8.084
			h301.811c4.467,0,8.084-3.618,8.084-8.084s-3.617-8.084-8.084-8.084h-35.031v-102.4h121.263c10.401,0,18.863-8.463,18.863-18.862
			v-53.896C512,316.208,508.382,312.589,503.916,312.589z M355.706,420.379H180.547c-4.466,0-8.084,3.618-8.084,8.084
			s3.618,8.084,8.084,8.084h175.158v59.284h-199.41v-102.4h199.411V420.379z M57.099,189.497
			c-8.102,1.619-13.984,8.792-13.984,17.056v12.663c0,8.263,5.881,15.438,13.982,17.056l18.519,3.705
			c1.054,3.034,2.285,6.007,3.685,8.895l-10.477,15.715c-4.583,6.875-3.669,16.104,2.173,21.947l8.955,8.955
			c5.843,5.841,15.072,6.755,21.947,2.173l15.715-10.478c2.888,1.4,5.859,2.632,8.894,3.686l3.705,18.518
			c1.619,8.104,8.792,13.984,17.056,13.984h12.663c8.263,0,15.437-5.881,17.056-13.982l3.705-18.519
			c3.034-1.054,6.006-2.285,8.894-3.686l15.715,10.478c6.874,4.583,16.103,3.67,21.947-2.173l8.955-8.955
			c5.842-5.843,6.756-15.072,2.173-21.947L227.9,248.872c1.4-2.888,2.631-5.859,3.685-8.895l18.518-3.704
			c8.103-1.619,13.984-8.792,13.984-17.057v-12.663c0-8.263-5.881-15.437-13.982-17.056l-18.519-3.705
			c-1.054-3.035-2.285-6.006-3.685-8.894l10.477-15.716c4.583-6.875,3.669-16.104-2.173-21.946l-8.955-8.955
			c-5.845-5.842-15.072-6.756-21.947-2.173l-15.715,10.477c-2.888-1.4-5.859-2.631-8.894-3.685l-3.705-18.519
			c-1.62-8.101-8.792-13.981-17.057-13.981h-12.663c-8.264,0-15.437,5.881-17.056,13.981l-3.705,18.52
			c-3.034,1.054-6.006,2.284-8.894,3.685L101.9,128.11c-6.874-4.582-16.103-3.67-21.947,2.173l-8.955,8.955
			c-5.842,5.843-6.756,15.071-2.173,21.946L79.302,176.9c-1.4,2.888-2.631,5.857-3.685,8.894L57.099,189.497z M83.48,200.708
			c2.985-0.597,5.379-2.818,6.2-5.747c1.425-5.093,3.46-10.003,6.047-14.595c1.495-2.653,1.372-5.92-0.317-8.453l-13.133-19.697
			c-0.322-0.483-0.258-1.135,0.154-1.546l8.955-8.955c0.411-0.413,1.06-0.477,1.546-0.154l19.697,13.134
			c2.533,1.688,5.801,1.811,8.452,0.316c4.595-2.587,9.504-4.622,14.596-6.047c2.93-0.821,5.15-3.215,5.747-6.2l4.644-23.212
			c0.113-0.568,0.619-0.982,1.201-0.982h12.663c0.582,0,1.088,0.414,1.201,0.983l4.644,23.211c0.597,2.985,2.818,5.379,5.747,6.2
			c5.092,1.425,10.001,3.46,14.596,6.047c2.651,1.495,5.92,1.373,8.452-0.316l19.697-13.134c0.485-0.323,1.135-0.259,1.546,0.154
			l8.955,8.955c0.412,0.411,0.475,1.062,0.154,1.546l-13.133,19.697c-1.689,2.533-1.812,5.8-0.317,8.453
			c2.587,4.592,4.622,9.502,6.047,14.595c0.821,2.93,3.215,5.15,6.2,5.747l23.212,4.644c0.569,0.113,0.983,0.619,0.983,1.201v12.663
			c0,0.582-0.414,1.088-0.984,1.201l-23.211,4.644c-2.985,0.598-5.379,2.818-6.2,5.747c-1.425,5.093-3.46,10.001-6.047,14.597
			c-1.495,2.651-1.371,5.919,0.317,8.452l13.133,19.696c0.322,0.484,0.258,1.135-0.154,1.546l-8.955,8.955
			c-0.411,0.412-1.06,0.478-1.546,0.154l-19.697-13.133c-2.533-1.69-5.802-1.813-8.452-0.317c-4.595,2.587-9.504,4.622-14.596,6.047
			c-2.93,0.821-5.15,3.215-5.747,6.2l-4.644,23.212c-0.113,0.569-0.619,0.983-1.201,0.983h-12.663c-0.582,0-1.088-0.414-1.201-0.984
			l-4.644-23.211c-0.597-2.985-2.818-5.379-5.747-6.2c-5.092-1.425-10.001-3.46-14.596-6.047c-1.234-0.696-2.602-1.041-3.968-1.041
			c-1.567,0-3.13,0.455-4.484,1.358l-19.697,13.133c-0.485,0.324-1.135,0.258-1.546-0.154l-8.955-8.955
			c-0.412-0.411-0.475-1.061-0.154-1.546l13.133-19.696c1.688-2.533,1.812-5.801,0.317-8.452c-2.587-4.596-4.622-9.504-6.047-14.597
			c-0.821-2.93-3.215-5.149-6.2-5.747l-23.212-4.644c-0.569-0.113-0.983-0.619-0.983-1.201v-12.663c0-0.582,0.414-1.088,0.984-1.201
			L83.48,200.708z M153.6,251.688c21.397,0,38.804-17.406,38.804-38.804c0-21.396-17.407-38.804-38.804-38.804
			s-38.804,17.407-38.804,38.804C114.796,234.281,132.203,251.688,153.6,251.688z M153.6,190.248
			c12.481,0,22.636,10.155,22.636,22.636c0,12.481-10.155,22.636-22.636,22.636s-22.636-10.154-22.636-22.636
			C130.964,200.403,141.119,190.248,153.6,190.248z M309.895,75.453c-4.465,0-8.084,3.619-8.084,8.084v258.695
			c0,4.466,3.619,8.084,8.084,8.084c4.467,0,8.084-3.618,8.084-8.084v-24.254h132.042c10.401,0,18.863-8.463,18.863-18.862v-21.559
			c0-10.4-8.463-18.862-18.863-18.862h-32.337c-4.466,0-8.084,3.617-8.084,8.084c0,4.466,3.619,8.084,8.084,8.084h32.337
			c1.486,0,2.695,1.208,2.695,2.694v21.559c0,1.485-1.208,2.694-2.695,2.694H317.979v-26.946h67.369
			c4.465,0,8.084-3.618,8.084-8.084s-3.619-8.084-8.084-8.084h-67.369v-16.168h78.147c10.401,0,18.862-8.463,18.862-18.863v-21.558
			c0-10.401-8.463-18.863-18.862-18.863h-21.558c-4.467,0-8.084,3.618-8.084,8.084s3.619,8.084,8.084,8.084h21.558
			c1.485,0,2.694,1.208,2.694,2.695v21.558c0,1.486-1.207,2.695-2.694,2.695h-78.147v-26.947h24.254
			c4.466,0,8.084-3.618,8.084-8.084s-3.618-8.084-8.084-8.084h-24.254v-16.168h35.032c10.401,0,18.863-8.463,18.863-18.863v-21.558
			c0-10.401-8.463-18.863-18.863-18.863h-35.032V83.537C317.979,79.071,314.359,75.453,309.895,75.453z M353.01,123.959
			L353.01,123.959c1.486-0.001,2.695,1.207,2.695,2.694v21.558c0,1.486-1.208,2.695-2.695,2.695h-35.031v-26.947H353.01z"/>
	</g>
</g>
</svg>
